<mxfile host="app.diagrams.net" modified="2023-07-13T21:10:15.470Z" agent="Mozilla/5.0 (Macintosh; Intel Mac OS X 10_15_7) AppleWebKit/537.36 (KHTML, like Gecko) Chrome/114.0.0.0 Safari/537.36" etag="iFx1t8lGtHCsJxmCbu4Z" version="21.5.2" type="device">
  <diagram name="Page-1" id="VlZbHFtChdrGzwKs_LxF">
    <mxGraphModel dx="884" dy="758" grid="1" gridSize="10" guides="1" tooltips="1" connect="1" arrows="1" fold="1" page="1" pageScale="1" pageWidth="827" pageHeight="1169" math="0" shadow="0">
      <root>
        <mxCell id="0" />
        <mxCell id="1" parent="0" />
        <mxCell id="eirpmqJPmtOJmETznUmS-19" style="edgeStyle=orthogonalEdgeStyle;rounded=0;orthogonalLoop=1;jettySize=auto;html=1;endArrow=none;endFill=0;" parent="1" source="eirpmqJPmtOJmETznUmS-1" edge="1">
          <mxGeometry relative="1" as="geometry">
            <mxPoint x="695" y="246" as="targetPoint" />
          </mxGeometry>
        </mxCell>
        <mxCell id="eirpmqJPmtOJmETznUmS-1" value="def algorithm():&lt;br&gt;&quot;&quot;This is how it&#39;s done&quot;&quot;&quot;" style="shape=card;whiteSpace=wrap;html=1;" parent="1" vertex="1">
          <mxGeometry x="620" y="276" width="150" height="70" as="geometry" />
        </mxCell>
        <mxCell id="eirpmqJPmtOJmETznUmS-42" style="edgeStyle=orthogonalEdgeStyle;rounded=0;orthogonalLoop=1;jettySize=auto;html=1;entryX=-0.02;entryY=0.571;entryDx=0;entryDy=0;entryPerimeter=0;" parent="1" source="eirpmqJPmtOJmETznUmS-2" target="eirpmqJPmtOJmETznUmS-1" edge="1">
          <mxGeometry relative="1" as="geometry" />
        </mxCell>
        <mxCell id="eirpmqJPmtOJmETznUmS-2" value="Human expert" style="shape=umlActor;verticalLabelPosition=bottom;verticalAlign=top;html=1;outlineConnect=0;" parent="1" vertex="1">
          <mxGeometry x="500" y="286" width="30" height="60" as="geometry" />
        </mxCell>
        <mxCell id="eirpmqJPmtOJmETznUmS-3" value="" style="shape=image;html=1;verticalAlign=top;verticalLabelPosition=bottom;labelBackgroundColor=#ffffff;imageAspect=0;aspect=fixed;image=https://cdn0.iconfinder.com/data/icons/phosphor-regular-vol-4/256/robot-128.png" parent="1" vertex="1">
          <mxGeometry x="142" y="120" width="88" height="88" as="geometry" />
        </mxCell>
        <mxCell id="eirpmqJPmtOJmETznUmS-6" value="&lt;font style=&quot;font-size: 18px;&quot;&gt;Environment/&lt;br&gt;dataset&lt;/font&gt;" style="ellipse;shape=cloud;whiteSpace=wrap;html=1;" parent="1" vertex="1">
          <mxGeometry x="335" y="131.5" width="186" height="145" as="geometry" />
        </mxCell>
        <mxCell id="eirpmqJPmtOJmETznUmS-7" value="" style="shape=image;html=1;verticalAlign=top;verticalLabelPosition=bottom;labelBackgroundColor=#ffffff;imageAspect=0;aspect=fixed;image=https://cdn0.iconfinder.com/data/icons/phosphor-regular-vol-4/256/robot-128.png" parent="1" vertex="1">
          <mxGeometry x="200" y="276" width="88" height="88" as="geometry" />
        </mxCell>
        <mxCell id="eirpmqJPmtOJmETznUmS-50" style="edgeStyle=orthogonalEdgeStyle;rounded=0;orthogonalLoop=1;jettySize=auto;html=1;endArrow=none;endFill=0;" parent="1" source="eirpmqJPmtOJmETznUmS-9" edge="1">
          <mxGeometry relative="1" as="geometry">
            <mxPoint x="186" y="190" as="targetPoint" />
          </mxGeometry>
        </mxCell>
        <mxCell id="eirpmqJPmtOJmETznUmS-9" value="Model parameters" style="shape=cylinder3;whiteSpace=wrap;html=1;boundedLbl=1;backgroundOutline=1;size=15;" parent="1" vertex="1">
          <mxGeometry x="151" y="210" width="70" height="80" as="geometry" />
        </mxCell>
        <mxCell id="eirpmqJPmtOJmETznUmS-16" style="edgeStyle=orthogonalEdgeStyle;rounded=0;orthogonalLoop=1;jettySize=auto;html=1;endArrow=none;endFill=0;" parent="1" source="eirpmqJPmtOJmETznUmS-10" edge="1">
          <mxGeometry relative="1" as="geometry">
            <mxPoint x="244" y="354" as="targetPoint" />
          </mxGeometry>
        </mxCell>
        <mxCell id="eirpmqJPmtOJmETznUmS-10" value="Model parameters" style="shape=cylinder3;whiteSpace=wrap;html=1;boundedLbl=1;backgroundOutline=1;size=15;" parent="1" vertex="1">
          <mxGeometry x="209" y="369" width="70" height="80" as="geometry" />
        </mxCell>
        <mxCell id="eirpmqJPmtOJmETznUmS-13" value="" style="shape=image;html=1;verticalAlign=top;verticalLabelPosition=bottom;labelBackgroundColor=#ffffff;imageAspect=0;aspect=fixed;image=https://cdn0.iconfinder.com/data/icons/phosphor-regular-vol-4/256/robot-128.png" parent="1" vertex="1">
          <mxGeometry x="651" y="170" width="88" height="88" as="geometry" />
        </mxCell>
        <mxCell id="eirpmqJPmtOJmETznUmS-14" value="Code repository" style="text;html=1;strokeColor=none;fillColor=none;align=center;verticalAlign=middle;whiteSpace=wrap;rounded=0;" parent="1" vertex="1">
          <mxGeometry x="670" y="340" width="116" height="28" as="geometry" />
        </mxCell>
        <mxCell id="eirpmqJPmtOJmETznUmS-43" style="edgeStyle=orthogonalEdgeStyle;rounded=0;orthogonalLoop=1;jettySize=auto;html=1;exitX=0.5;exitY=0;exitDx=0;exitDy=0;exitPerimeter=0;entryX=0.167;entryY=1.014;entryDx=0;entryDy=0;entryPerimeter=0;" parent="1" source="eirpmqJPmtOJmETznUmS-20" target="eirpmqJPmtOJmETznUmS-1" edge="1">
          <mxGeometry relative="1" as="geometry">
            <mxPoint x="730" y="410" as="targetPoint" />
          </mxGeometry>
        </mxCell>
        <mxCell id="eirpmqJPmtOJmETznUmS-20" value="Human expert" style="shape=umlActor;verticalLabelPosition=bottom;verticalAlign=top;html=1;outlineConnect=0;" parent="1" vertex="1">
          <mxGeometry x="586" y="389" width="30" height="60" as="geometry" />
        </mxCell>
        <mxCell id="eirpmqJPmtOJmETznUmS-21" value="&lt;font style=&quot;font-size: 18px;&quot;&gt;Classical machine learning&lt;/font&gt;" style="text;html=1;strokeColor=none;fillColor=none;align=center;verticalAlign=middle;whiteSpace=wrap;rounded=0;" parent="1" vertex="1">
          <mxGeometry x="62" y="80" width="248" height="30" as="geometry" />
        </mxCell>
        <mxCell id="eirpmqJPmtOJmETznUmS-30" value="" style="endArrow=classic;html=1;rounded=0;" parent="1" edge="1">
          <mxGeometry width="50" height="50" relative="1" as="geometry">
            <mxPoint x="340" y="159.5" as="sourcePoint" />
            <mxPoint x="230" y="159.5" as="targetPoint" />
          </mxGeometry>
        </mxCell>
        <mxCell id="eirpmqJPmtOJmETznUmS-31" value="inputs/observations" style="edgeLabel;html=1;align=center;verticalAlign=middle;resizable=0;points=[];" parent="eirpmqJPmtOJmETznUmS-30" vertex="1" connectable="0">
          <mxGeometry x="0.3143" relative="1" as="geometry">
            <mxPoint x="16" y="-10" as="offset" />
          </mxGeometry>
        </mxCell>
        <mxCell id="eirpmqJPmtOJmETznUmS-32" value="" style="endArrow=classic;html=1;rounded=0;" parent="1" edge="1">
          <mxGeometry width="50" height="50" relative="1" as="geometry">
            <mxPoint x="230" y="174.5" as="sourcePoint" />
            <mxPoint x="340" y="174.5" as="targetPoint" />
          </mxGeometry>
        </mxCell>
        <mxCell id="eirpmqJPmtOJmETznUmS-33" value="outputs/actions" style="edgeLabel;html=1;align=center;verticalAlign=middle;resizable=0;points=[];" parent="eirpmqJPmtOJmETznUmS-32" vertex="1" connectable="0">
          <mxGeometry x="0.3143" relative="1" as="geometry">
            <mxPoint x="-19" y="7" as="offset" />
          </mxGeometry>
        </mxCell>
        <mxCell id="eirpmqJPmtOJmETznUmS-34" value="" style="endArrow=classic;html=1;rounded=0;" parent="1" edge="1">
          <mxGeometry width="50" height="50" relative="1" as="geometry">
            <mxPoint x="350" y="235.5" as="sourcePoint" />
            <mxPoint x="280" y="290" as="targetPoint" />
          </mxGeometry>
        </mxCell>
        <mxCell id="eirpmqJPmtOJmETznUmS-36" value="" style="endArrow=classic;html=1;rounded=0;" parent="1" edge="1">
          <mxGeometry width="50" height="50" relative="1" as="geometry">
            <mxPoint x="290" y="300" as="sourcePoint" />
            <mxPoint x="360" y="245.5" as="targetPoint" />
          </mxGeometry>
        </mxCell>
        <mxCell id="eirpmqJPmtOJmETznUmS-38" value="" style="endArrow=classic;html=1;rounded=0;" parent="1" edge="1">
          <mxGeometry width="50" height="50" relative="1" as="geometry">
            <mxPoint x="642" y="204" as="sourcePoint" />
            <mxPoint x="532" y="204" as="targetPoint" />
          </mxGeometry>
        </mxCell>
        <mxCell id="eirpmqJPmtOJmETznUmS-39" value="inputs/observations" style="edgeLabel;html=1;align=center;verticalAlign=middle;resizable=0;points=[];" parent="eirpmqJPmtOJmETznUmS-38" vertex="1" connectable="0">
          <mxGeometry x="0.3143" relative="1" as="geometry">
            <mxPoint x="15" y="21" as="offset" />
          </mxGeometry>
        </mxCell>
        <mxCell id="eirpmqJPmtOJmETznUmS-40" value="" style="endArrow=classic;html=1;rounded=0;" parent="1" edge="1">
          <mxGeometry width="50" height="50" relative="1" as="geometry">
            <mxPoint x="532" y="219" as="sourcePoint" />
            <mxPoint x="642" y="219" as="targetPoint" />
          </mxGeometry>
        </mxCell>
        <mxCell id="eirpmqJPmtOJmETznUmS-41" value="outputs/actions" style="edgeLabel;html=1;align=center;verticalAlign=middle;resizable=0;points=[];" parent="eirpmqJPmtOJmETznUmS-40" vertex="1" connectable="0">
          <mxGeometry x="0.3143" relative="1" as="geometry">
            <mxPoint x="-19" y="-23" as="offset" />
          </mxGeometry>
        </mxCell>
        <mxCell id="eirpmqJPmtOJmETznUmS-48" style="edgeStyle=orthogonalEdgeStyle;rounded=0;orthogonalLoop=1;jettySize=auto;html=1;entryX=0;entryY=0;entryDx=0;entryDy=50;entryPerimeter=0;exitX=0.67;exitY=0.227;exitDx=0;exitDy=0;exitPerimeter=0;" parent="1" source="eirpmqJPmtOJmETznUmS-44" target="eirpmqJPmtOJmETznUmS-1" edge="1">
          <mxGeometry relative="1" as="geometry">
            <Array as="points">
              <mxPoint x="570" y="400" />
              <mxPoint x="570" y="326" />
            </Array>
          </mxGeometry>
        </mxCell>
        <mxCell id="eirpmqJPmtOJmETznUmS-44" value="Program Synthesis&lt;br&gt;Model" style="shape=image;html=1;verticalAlign=top;verticalLabelPosition=bottom;labelBackgroundColor=#ffffff;imageAspect=0;aspect=fixed;image=https://cdn0.iconfinder.com/data/icons/phosphor-regular-vol-4/256/robot-128.png" parent="1" vertex="1">
          <mxGeometry x="471" y="380" width="88" height="88" as="geometry" />
        </mxCell>
        <mxCell id="eirpmqJPmtOJmETznUmS-47" style="edgeStyle=orthogonalEdgeStyle;rounded=0;orthogonalLoop=1;jettySize=auto;html=1;entryX=0.28;entryY=0.986;entryDx=0;entryDy=0;entryPerimeter=0;" parent="1" source="eirpmqJPmtOJmETznUmS-45" target="eirpmqJPmtOJmETznUmS-1" edge="1">
          <mxGeometry relative="1" as="geometry" />
        </mxCell>
        <mxCell id="eirpmqJPmtOJmETznUmS-45" value="Program Synthesis&lt;br&gt;Model" style="shape=image;html=1;verticalAlign=top;verticalLabelPosition=bottom;labelBackgroundColor=#ffffff;imageAspect=0;aspect=fixed;image=https://cdn0.iconfinder.com/data/icons/phosphor-regular-vol-4/256/robot-128.png" parent="1" vertex="1">
          <mxGeometry x="640" y="396" width="88" height="88" as="geometry" />
        </mxCell>
        <mxCell id="eirpmqJPmtOJmETznUmS-49" value="&lt;font style=&quot;font-size: 18px;&quot;&gt;Program synthesis&lt;/font&gt;" style="text;html=1;strokeColor=none;fillColor=none;align=center;verticalAlign=middle;whiteSpace=wrap;rounded=0;" parent="1" vertex="1">
          <mxGeometry x="500" y="80" width="248" height="30" as="geometry" />
        </mxCell>
      </root>
    </mxGraphModel>
  </diagram>
</mxfile>
